<?xml version="1.0" encoding="utf-8"?>
<!-- Generator: Adobe Illustrator 24.0.2, SVG Export Plug-In . SVG Version: 6.00 Build 0)  -->
<svg version="1.1" id="Layer_1" xmlns="http://www.w3.org/2000/svg" xmlns:xlink="http://www.w3.org/1999/xlink" x="0px" y="0px"
	 viewBox="0 0 32 32" style="enable-background:new 0 0 32 32;" xml:space="preserve">
<style type="text/css">
	.st0{fill:#CBE4DE;}
</style>
<path class="st0" d="M18.8,15.5l8.6-8.6c0.8-0.8,0.8-2.1,0-2.8s-2.1-0.8-2.8,0L16,12.7L7.4,4.1C6.6,3.4,5.3,3.5,4.6,4.3
	C3.9,5,3.9,6.1,4.6,6.9l8.6,8.6l-8.6,8.6c-0.8,0.8-0.8,2.1,0,2.8s2.1,0.8,2.8,0l8.6-8.6l8.6,8.6c0.8,0.8,2.1,0.8,2.8,0
	s0.8-2.1,0-2.8L18.8,15.5z"/>
</svg>
