<?xml version="1.0" encoding="utf-8"?>
<!-- Generator: Adobe Illustrator 24.0.2, SVG Export Plug-In . SVG Version: 6.00 Build 0)  -->
<svg version="1.1" id="Layer_1" xmlns="http://www.w3.org/2000/svg" xmlns:xlink="http://www.w3.org/1999/xlink" x="0px" y="0px"
	 viewBox="0 0 240 240" style="enable-background:new 0 0 240 240;" xml:space="preserve">
<style type="text/css">
	.st0{fill:#0E8388;}
</style>
<g>
	<g transform="scale(5.33333,5.33333)">
		<path class="st0" d="M7.9,13.1L7.9,13.1L7.9,13.1c2.7,0,4.3-1.9,4.3-4.2c0-2.4-1.6-4.2-4.2-4.2S3.8,6.5,3.8,8.9
			C3.8,11.3,5.4,13.1,7.9,13.1z M3.8,15.9h8.4v24.4H3.8V15.9z M41.3,24.8c0-4.9-4-8.9-8.9-8.9c-2.9,0-5.4,1.4-7,3.5v-3.5h-8.4v24.4
			h8.4V26.3l0,0c0-2.1,1.7-3.8,3.8-3.8s3.8,1.7,3.8,3.8v14.1h8.4C41.3,40.3,41.3,26.2,41.3,24.8z"/>
	</g>
</g>
</svg>
