<?xml version="1.0" encoding="utf-8"?>
<!-- Generator: Adobe Illustrator 24.0.2, SVG Export Plug-In . SVG Version: 6.00 Build 0)  -->
<svg version="1.1" id="Layer_1" xmlns="http://www.w3.org/2000/svg" xmlns:xlink="http://www.w3.org/1999/xlink" x="0px" y="0px"
	 viewBox="0 0 512 512" style="enable-background:new 0 0 512 512;" xml:space="preserve">
<style type="text/css">
	.st0{fill:#CBE4DE;}
</style>
<g>
	<g>
		<path class="st0" d="M256,118.2c-76,0-137.8,61.8-137.8,137.8S180,393.8,256,393.8S393.8,332,393.8,256S332,118.2,256,118.2z
			 M256,354.5c-54.4,0-98.5-44.1-98.5-98.5s44.1-98.5,98.5-98.5s98.5,44.1,98.5,98.5S310.4,354.5,256,354.5z M256,78.8
			c10.9,0,19.7-8.8,19.7-19.7V19.7C275.7,8.8,266.9,0,256,0s-19.7,8.8-19.7,19.7v39.4C236.3,69.9,245.1,78.8,256,78.8z M256,433.2
			c-10.9,0-19.7,8.8-19.7,19.7v39.4c0,10.9,8.8,19.7,19.7,19.7s19.7-8.8,19.7-19.7v-39.4C275.7,442.1,266.9,433.2,256,433.2z
			 M409.2,130.7l27.8-27.8c7.7-7.7,7.7-20.2,0-27.8c-7.7-7.7-20.2-7.7-27.8,0l-27.8,27.8c-7.7,7.7-7.7,20.2,0,27.8
			C389,138.4,401.5,138.4,409.2,130.7z M102.8,381.3L75,409.2c-7.7,7.7-7.7,20.2,0,27.8c7.7,7.7,20.2,7.7,27.8,0l27.8-27.8
			c7.7-7.7,7.7-20.2,0-27.8C123,373.6,110.5,373.6,102.8,381.3z M78.8,256c0-10.9-8.8-19.7-19.7-19.7H19.7C8.8,236.3,0,245.1,0,256
			s8.8,19.7,19.7,19.7h39.4C69.9,275.7,78.8,266.9,78.8,256z M492.3,236.3h-39.4c-10.9,0-19.7,8.8-19.7,19.7s8.8,19.7,19.7,19.7
			h39.4c10.9,0,19.7-8.8,19.7-19.7S503.2,236.3,492.3,236.3z M102.8,130.7c7.7,7.7,20.2,7.7,27.8,0c7.7-7.7,7.7-20.2,0-27.8
			L102.8,75c-7.7-7.7-20.2-7.7-27.8,0c-7.7,7.7-7.7,20.2,0,27.8L102.8,130.7z M409.2,381.3c-7.7-7.7-20.2-7.7-27.8,0
			c-7.7,7.7-7.7,20.2,0,27.8l27.8,27.8c7.7,7.7,20.2,7.7,27.8,0c7.7-7.7,7.7-20.2,0-27.8L409.2,381.3z"/>
	</g>
</g>
</svg>
