<?xml version="1.0" encoding="utf-8"?>
<!-- Generator: Adobe Illustrator 24.0.2, SVG Export Plug-In . SVG Version: 6.00 Build 0)  -->
<svg version="1.1" id="Layer_1" xmlns="http://www.w3.org/2000/svg" xmlns:xlink="http://www.w3.org/1999/xlink" x="0px" y="0px"
	 viewBox="0 0 250 250" style="enable-background:new 0 0 250 250;" xml:space="preserve">
<style type="text/css">
	.st0{fill:#0E8388;}
</style>
<g>
	<g transform="scale(10.66667,10.66667)">
		<path class="st0" d="M21.5,3.9c-0.8,0.5-2.3,1.1-3.2,1.2c0,0,0,0-0.1,0c-0.8-0.8-1.9-1.3-3.1-1.3c-2.4,0-4.4,2-4.4,4.4
			c0,0.1,0,0.4,0,0.5C7.5,8.8,5,7.1,3.2,4.9C3,5.4,2.9,6.1,2.9,6.9c0,1.4,1.1,2.7,2.7,3.5c-0.3,0.1-0.6,0.1-1,0.1
			c-0.6,0-1.2-0.1-1.7-0.6c0,0,0,0,0,0c0,1.9,2,3.2,3.8,3.6c-0.4,0.2-1.1,0.2-1.5,0.2c-0.3,0-1.2-0.1-1.4-0.2c0.5,1.6,2.3,2.4,4,2.5
			c-1.3,1.1-2.3,1.5-5,1.5H2c1.7,1.1,4,2,6.2,2c7.3,0,11.4-5.5,11.4-10.7c0-0.1,0-0.3,0-0.4c0,0,0,0,0-0.1c0,0,0-0.1,0-0.1
			c0-0.1,0-0.3,0-0.3c0.8-0.6,1.4-1.3,2-2c-0.7,0.3-1.5,0.5-2.3,0.6C20,6,21.2,4.8,21.5,3.9L21.5,3.9z"/>
	</g>
</g>
</svg>
